<svg width="16" height="16" viewBox="0 0 16 16" fill="none" xmlns="http://www.w3.org/2000/svg">
<path fill-rule="evenodd" clip-rule="evenodd" d="M11 7H9V5C9 4.44772 8.55228 4 8 4C7.44772 4 7 4.44772 7 5V7H5C4.44772 7 4 7.44772 4 8C4 8.55228 4.44772 9 5 9H7V11C7 11.5523 7.44772 12 8 12C8.55228 12 9 11.5523 9 11V9H11C11.5523 9 12 8.55228 12 8C12 7.44772 11.5523 7 11 7Z" fill="#398FCC"/>
<path fill-rule="evenodd" clip-rule="evenodd" d="M0 8C0 3.58172 3.58172 0 8 0C12.4163 0.0047399 15.9953 3.58369 16 8C16 12.4183 12.4183 16 8 16C3.58172 16 0 12.4183 0 8ZM2 8C2 11.3137 4.68629 14 8 14C11.3122 13.9964 13.9964 11.3122 14 8C14 4.68629 11.3137 2 8 2C4.68629 2 2 4.68629 2 8Z" fill="#398FCC"/>
</svg>
