<svg width="16" height="17" viewBox="0 0 16 17" fill="none" xmlns="http://www.w3.org/2000/svg">
<path fill-rule="evenodd" clip-rule="evenodd" d="M11.5613 8.50958C13.4929 6.54951 13.4775 3.397 11.5269 1.45586C9.57627 -0.485285 6.42373 -0.485285 4.4731 1.45586C2.52247 3.397 2.50709 6.54951 4.4387 8.50958C1.7661 9.56034 0.00639414 12.1368 0 15.0086C0 15.5609 0.447715 16.0086 1 16.0086H15C15.5523 16.0086 16 15.5609 16 15.0086C15.9936 12.1368 14.2339 9.56034 11.5613 8.50958ZM8 2.00858C9.65685 2.00858 11 3.35172 11 5.00858C11 6.66543 9.65685 8.00858 8 8.00858C6.34315 8.00858 5 6.66543 5 5.00858C5.00182 3.35248 6.3439 2.0104 8 2.00858ZM7 10.0086C4.62504 10.012 2.57878 11.6824 2.1 14.0086H13.9C13.4212 11.6824 11.375 10.012 9 10.0086H7Z" fill="#398FCC"/>
</svg>
