<svg width="12" height="12" viewBox="0 0 12 12" fill="none" xmlns="http://www.w3.org/2000/svg">
<path fill-rule="evenodd" clip-rule="evenodd" d="M1 2H11C11.5523 2 12 1.55228 12 1C12 0.447715 11.5523 0 11 0H1C0.447715 0 0 0.447715 0 1C0 1.55228 0.447715 2 1 2Z" fill="#AAAAAA"/>
<path fill-rule="evenodd" clip-rule="evenodd" d="M11 5H1C0.447715 5 0 5.44772 0 6C0 6.55228 0.447715 7 1 7H11C11.5523 7 12 6.55228 12 6C12 5.44772 11.5523 5 11 5Z" fill="#AAAAAA"/>
<path fill-rule="evenodd" clip-rule="evenodd" d="M11 10H1C0.447715 10 0 10.4477 0 11C0 11.5523 0.447715 12 1 12H11C11.5523 12 12 11.5523 12 11C12 10.4477 11.5523 10 11 10Z" fill="#AAAAAA"/>
</svg>
