<svg width="16" height="16" viewBox="0 0 16 16" fill="none" xmlns="http://www.w3.org/2000/svg">
<path fill-rule="evenodd" clip-rule="evenodd" d="M0 8C0 3.58172 3.58172 0 8 0C12.4165 0.00435482 15.9956 3.58353 16 8C16 12.4183 12.4183 16 8 16C3.58172 16 0 12.4183 0 8ZM10.4141 9L12.88 11.4661C13.4021 10.7319 13.7505 9.88861 13.8989 9H10.4141ZM13.8989 7H9V2.1011C11.5077 2.52787 13.4721 4.49231 13.8989 7ZM7 2.1011C4.11868 2.5865 2.00677 5.07809 2 8C1.99304 10.2457 3.24453 12.306 5.24059 13.335C7.23664 14.3641 9.64089 14.1883 11.4661 12.88L7.2942 8.7083C7.10556 8.52091 6.99964 8.26589 7 8V2.1011Z" fill="#A8B1B7"/>
</svg>
