<?xml version="1.0" encoding="UTF-8" standalone="no"?>
<svg
   xmlns:dc="http://purl.org/dc/elements/1.1/"
   xmlns:cc="http://creativecommons.org/ns#"
   xmlns:rdf="http://www.w3.org/1999/02/22-rdf-syntax-ns#"
   xmlns:svg="http://www.w3.org/2000/svg"
   xmlns="http://www.w3.org/2000/svg"
   viewBox="0 0 375.95999 186.50667"
   height="186.50667"
   width="375.95999"
   xml:space="preserve"
   id="svg2"
   version="1.1"><metadata
     id="metadata8"><rdf:RDF><cc:Work
         rdf:about=""><dc:format>image/svg+xml</dc:format><dc:type
           rdf:resource="http://purl.org/dc/dcmitype/StillImage" /></cc:Work></rdf:RDF></metadata><defs
     id="defs6" /><g
     transform="matrix(1.3333333,0,0,-1.3333333,0,186.50667)"
     id="g10"><g
       transform="scale(0.1)"
       id="g12"><path
         id="path14"
         style="fill:#2e5d9e;fill-opacity:1;fill-rule:nonzero;stroke:none"
         d="m 560.305,502.051 -68.86,-0.168 155.004,256.89 33.973,-56.449 z M 206.273,705.91 326.391,906.18 395.25,906.352 240.246,649.461 Z m 386.165,261.528 -23.52,-0.329 -0.418,0.329 -0.203,-0.34 -2.305,-0.028 -199.762,-336.457 -56.855,-94.675 -32.656,53.648 227.816,377.699 -211.156,-1.07 -155.406,-257.656 156.285,-267.762 23.637,0.332 0.3,-0.332 0.203,0.336 2.305,0.035 30.879,55.223 225.738,375.902 32.657,-53.645 -227.817,-377.695 211.156,1.063 155.407,257.66 -156.285,267.762" /><path
         id="path16"
         style="fill:#2e5d9e;fill-opacity:1;fill-rule:nonzero;stroke:none"
         d="m 903.727,635.953 v -30.254 h 54.746 V 588.734 H 903.727 V 557.84 h 63.066 V 540.871 H 884.84 v 112.047 h 80.027 v -16.965 h -61.14" /><path
         id="path18"
         style="fill:#2e5d9e;fill-opacity:1;fill-rule:nonzero;stroke:none"
         d="m 1105.18,558.004 v -17.133 h -67.38 v 112.047 h 18.89 v -94.914 h 48.49" /><path
         id="path20"
         style="fill:#2e5d9e;fill-opacity:1;fill-rule:nonzero;stroke:none"
         d="m 1190.12,635.953 v -30.254 h 54.75 v -16.965 h -54.75 V 557.84 h 63.07 v -16.969 h -81.95 v 112.047 h 80.03 v -16.965 h -61.15" /><path
         id="path22"
         style="fill:#2e5d9e;fill-opacity:1;fill-rule:nonzero;stroke:none"
         d="m 1416.39,636.113 -11.04,-13.765 c -8.17,8.804 -19.85,14.242 -31.21,14.242 -22.42,0 -40.02,-17.285 -40.02,-39.375 0,-22.09 17.6,-39.535 40.02,-39.535 11.2,0 22.72,5.121 31.21,13.285 l 11.2,-12.485 c -11.36,-11.207 -27.53,-18.406 -43.38,-18.406 -32.81,0 -58.26,24.809 -58.26,56.981 0,31.855 25.77,56.343 58.9,56.343 15.85,0 31.69,-6.562 42.58,-17.285" /><path
         id="path24"
         style="fill:#2e5d9e;fill-opacity:1;fill-rule:nonzero;stroke:none"
         d="m 1524.69,635.953 v -95.082 h -18.88 v 95.082 h -35.38 v 16.965 h 89.8 v -16.965 h -35.54" /><path
         id="path26"
         style="fill:#2e5d9e;fill-opacity:1;fill-rule:nonzero;stroke:none"
         d="m 1669.81,591.617 c 17.29,0 27.21,7.363 27.21,22.567 0,14.726 -9.92,21.769 -27.21,21.769 h -26.57 v -44.336 z m 5.12,-16.808 c -1.6,-0.161 -3.36,-0.161 -5.12,-0.161 h -26.57 v -33.777 h -18.89 v 112.047 h 45.46 c 28.65,0 45.14,-13.926 45.14,-38.258 0,-17.922 -8.32,-30.57 -23.22,-36.332 l 25.14,-37.457 h -21.45 l -20.49,33.938" /><path
         id="path28"
         style="fill:#2e5d9e;fill-opacity:1;fill-rule:nonzero;stroke:none"
         d="m 1788.03,540.871 v 112.047 h 18.89 V 540.871 h -18.89" /><path
         id="path30"
         style="fill:#2e5d9e;fill-opacity:1;fill-rule:nonzero;stroke:none"
         d="m 1976.55,636.113 -11.05,-13.765 c -8.16,8.804 -19.84,14.242 -31.21,14.242 -22.41,0 -40.02,-17.285 -40.02,-39.375 0,-22.09 17.61,-39.535 40.02,-39.535 11.2,0 22.73,5.121 31.21,13.285 l 11.2,-12.485 c -11.35,-11.207 -27.52,-18.406 -43.37,-18.406 -32.82,0 -58.27,24.809 -58.27,56.981 0,31.855 25.78,56.343 58.91,56.343 15.85,0 31.69,-6.562 42.58,-17.285" /><path
         id="path32"
         style="fill:#2e5d9e;fill-opacity:1;fill-rule:nonzero;stroke:none"
         d="M 1006.22,769.727 V 733.816 H 884.027 V 875.02 h 119.463 v -35.899 h -70.752 v -16.543 h 62.149 v -34.297 h -62.149 v -18.554 h 73.482" /><path
         id="path34"
         style="fill:#2e5d9e;fill-opacity:1;fill-rule:nonzero;stroke:none"
         d="M 1116.9,839.121 V 814.91 h 61.31 v -35.906 h -61.31 v -45.188 h -49.55 V 875.02 h 119.47 v -35.899 h -69.92" /><path
         id="path36"
         style="fill:#2e5d9e;fill-opacity:1;fill-rule:nonzero;stroke:none"
         d="M 1294.15,839.121 V 814.91 h 61.3 v -35.906 h -61.3 V 733.816 H 1244.6 V 875.02 h 119.46 v -35.899 h -69.91" /><path
         id="path38"
         style="fill:#2e5d9e;fill-opacity:1;fill-rule:nonzero;stroke:none"
         d="m 1530.81,804.422 c 0,21.984 -14.71,35.305 -32.97,35.305 -18.26,0 -32.97,-13.321 -32.97,-35.305 0,-21.992 14.71,-35.301 32.97,-35.301 18.26,0 32.97,13.309 32.97,35.301 z m -115.9,0 c 0,42.766 35.06,73.828 82.93,73.828 47.87,0 82.93,-31.062 82.93,-73.828 0,-42.762 -35.06,-73.836 -82.93,-73.836 -47.87,0 -82.93,31.074 -82.93,73.836" /><path
         id="path40"
         style="fill:#2e5d9e;fill-opacity:1;fill-rule:nonzero;stroke:none"
         d="m 1708.46,838.309 h -18.04 v -33.086 h 18.04 c 13.65,0 20.16,6.261 20.16,16.543 0,10.293 -6.51,16.543 -20.16,16.543 z m -4.61,-68.993 h -13.43 v -35.5 h -49.56 V 875.02 h 70.76 c 40.94,0 66.98,-20.579 66.98,-53.254 0,-20.371 -10.08,-35.703 -27.72,-44.375 l 30.86,-43.575 h -52.91 l -24.98,35.5" /><path
         id="path42"
         style="fill:#2e5d9e;fill-opacity:1;fill-rule:nonzero;stroke:none"
         d="m 1869.13,838.105 h -43.05 v 36.915 h 135.63 v -36.915 h -43.03 V 733.816 h -49.55 v 104.289" /><path
         id="path44"
         style="fill:#2e5d9e;fill-opacity:1;fill-rule:nonzero;stroke:none"
         d="m 2016.55,875.02 h 49.55 V 770.73 h 66.35 v -36.914 h -115.9 V 875.02" /><path
         id="path46"
         style="fill:#2e5d9e;fill-opacity:1;fill-rule:nonzero;stroke:none"
         d="M 2310.32,769.727 V 733.816 H 2188.11 V 875.02 h 119.47 v -35.899 h -70.76 v -16.543 h 62.15 v -34.297 h -62.15 v -18.554 h 73.5" /><path
         id="path48"
         style="fill:#2e5d9e;fill-opacity:1;fill-rule:nonzero;stroke:none"
         d="m 2362.21,745.117 15.96,34.696 c 13.85,-7.872 32.32,-12.911 48.5,-12.911 14.06,0 19.1,2.825 19.1,7.668 0,17.743 -81.25,3.426 -81.25,56.075 0,26.218 22.89,47.605 68.44,47.605 19.74,0 40.11,-4.031 55.43,-12.305 l -14.91,-34.492 c -14.48,7.063 -28.12,10.488 -40.94,10.488 -14.49,0 -19.1,-4.031 -19.1,-8.875 0,-16.945 81.25,-2.824 81.25,-54.875 0,-25.82 -22.89,-47.605 -68.44,-47.605 -24.57,0 -49.35,5.859 -64.04,14.531" /><path
         id="path50"
         style="fill:#2e5d9e;fill-opacity:1;fill-rule:nonzero;stroke:none"
         d="m 2542.17,745.117 15.96,34.696 c 13.87,-7.872 32.34,-12.911 48.51,-12.911 14.07,0 19.11,2.825 19.11,7.668 0,17.743 -81.26,3.426 -81.26,56.075 0,26.218 22.88,47.605 68.44,47.605 19.74,0 40.1,-4.031 55.43,-12.305 l -14.9,-34.492 c -14.49,7.063 -28.14,10.488 -40.95,10.488 -14.48,0 -19.11,-4.031 -19.11,-8.875 0,-16.945 81.26,-2.824 81.26,-54.875 0,-25.82 -22.88,-47.605 -68.44,-47.605 -24.57,0 -49.34,5.859 -64.05,14.531" /></g></g></svg>