<?xml version="1.0" encoding="UTF-8" standalone="no"?>
<!DOCTYPE svg PUBLIC "-//W3C//DTD SVG 1.1//EN" "http://www.w3.org/Graphics/SVG/1.1/DTD/svg11.dtd">
<svg version="1.1" xmlns="http://www.w3.org/2000/svg" xmlns:xlink="http://www.w3.org/1999/xlink" preserveAspectRatio="xMidYMid meet" viewBox="43.999999999999886 81.87999999999994 554.0000000000001 478.23999999999995" width="550" height="474.24"><defs><path d="M455.07 556.04L264.89 557.03L469.57 217.31L440.21 168.96L236.89 507.42L209.15 557.12L185.74 557.12L45 316.08L184.93 83.87L375.11 82.88L170.07 423.14L199.61 471.13L250.84 385.86L430.94 82.88L454.26 82.88L595 324.01L455.07 556.04ZM425.35 502.02L533.86 321.67L503.24 270.79L363.31 502.02L425.35 502.02ZM106.5 318.42L137.12 369.3L276.51 138.34L214.56 138.34L106.5 318.42Z" id="cquDBYKAj"></path><linearGradient id="gradientg1NMkc7aVV" gradientUnits="userSpaceOnUse" x1="-125.73" y1="320.05" x2="553.04" y2="320.05"><stop style="stop-color: #f9ed32;stop-opacity: 1" offset="0%"></stop><stop style="stop-color: #e6e52a;stop-opacity: 1" offset="7.000000000000001%"></stop><stop style="stop-color: #dbe125;stop-opacity: 1" offset="14.000000000000002%"></stop><stop style="stop-color: #d7df23;stop-opacity: 1" offset="21%"></stop><stop style="stop-color: #cfdc26;stop-opacity: 1" offset="24%"></stop><stop style="stop-color: #8dc63f;stop-opacity: 1" offset="48%"></stop><stop style="stop-color: #63ba82;stop-opacity: 1" offset="57.99999999999999%"></stop><stop style="stop-color: #42b2b5;stop-opacity: 1" offset="67%"></stop><stop style="stop-color: #2facd5;stop-opacity: 1" offset="74%"></stop><stop style="stop-color: #27aae1;stop-opacity: 1" offset="77%"></stop><stop style="stop-color: #17629e;stop-opacity: 1" offset="100%"></stop></linearGradient></defs><g><g><use xlink:href="#cquDBYKAj" opacity="1" fill="url(#gradientg1NMkc7aVV)"></use><g><use xlink:href="#cquDBYKAj" opacity="1" fill-opacity="0" stroke="#000000" stroke-width="1" stroke-opacity="0"></use></g></g></g></svg>