<svg id="Layer_1" data-name="Layer 1" xmlns="http://www.w3.org/2000/svg" xmlns:xlink="http://www.w3.org/1999/xlink" viewBox="0 0 281.97 139.88"><defs><style>.cls-1{fill:url(#linear-gradient);}.cls-2{fill:#17629e;}</style><linearGradient id="linear-gradient" x1="-1.27" y1="67.61" x2="74.11" y2="67.61" gradientUnits="userSpaceOnUse"><stop offset="0" stop-color="#f9ed32"/><stop offset="0.07" stop-color="#e6e52a"/><stop offset="0.14" stop-color="#dbe125"/><stop offset="0.21" stop-color="#d7df23"/><stop offset="0.24" stop-color="#cfdc26"/><stop offset="0.48" stop-color="#8dc63f"/><stop offset="0.58" stop-color="#63ba82"/><stop offset="0.67" stop-color="#42b2b5"/><stop offset="0.74" stop-color="#2facd5"/><stop offset="0.77" stop-color="#27aae1"/><stop offset="1" stop-color="#17629e"/></linearGradient></defs><title>Effortless Electric Logos_Final_Outlined</title><path class="cls-1" d="M63.14,41.28l-2.35,0,0,0,0,0H60.5L40.52,75l-5.68,9.47-3.27-5.37L54.35,41.29l-21.11.11L17.7,67.17,33.32,93.94l2.37,0,0,0,0,0H36l3.09-5.53L61.63,50.79l3.27,5.37L42.11,93.93l21.12-.11L78.77,68.06ZM24.53,67.43l12-20h6.88L27.92,73.08Zm35.4,20.39H53l15.5-25.68,3.4,5.64Z"/><path class="cls-2" d="M108.87,79.77v4.17H95.25V67.55h13.31v4.17h-7.88v1.92h6.93v4h-6.93v2.15Z"/><path class="cls-2" d="M118,67.55h5.52v12.1H131v4.29H118Z"/><path class="cls-2" d="M153.12,79.77v4.17H139.49V67.55h13.32v4.17h-7.89v1.92h6.93v4h-6.93v2.15Z"/><path class="cls-2" d="M161.62,75.74c0-5,3.86-8.56,9.13-8.56a8.88,8.88,0,0,1,7.35,3.27l-3.49,3.12A4.42,4.42,0,0,0,171,71.65c-2.3,0-3.84,1.59-3.84,4.09s1.54,4.1,3.84,4.1a4.42,4.42,0,0,0,3.58-1.92L178.1,81a8.86,8.86,0,0,1-7.35,3.28C165.48,84.31,161.62,80.78,161.62,75.74Z"/><path class="cls-2" d="M190.15,71.83h-4.79V67.55h15.12v4.28h-4.8V83.94h-5.53Z"/><path class="cls-2" d="M216,79.82h-1.49v4.12h-5.53V67.55h7.89c4.56,0,7.47,2.39,7.47,6.18a5.51,5.51,0,0,1-3.09,5.15l3.44,5.06h-5.9Zm.52-8h-2v3.84h2c1.52,0,2.25-.73,2.25-1.92S218,71.81,216.47,71.81Z"/><path class="cls-2" d="M233.4,67.55h5.52V83.94H233.4Z"/><path class="cls-2" d="M248,75.74c0-5,3.86-8.56,9.13-8.56a8.88,8.88,0,0,1,7.35,3.27L261,73.57a4.42,4.42,0,0,0-3.58-1.92c-2.3,0-3.84,1.59-3.84,4.09s1.54,4.1,3.84,4.1A4.42,4.42,0,0,0,261,77.92L264.44,81a8.86,8.86,0,0,1-7.35,3.28C251.82,84.31,248,80.78,248,75.74Z"/><path class="cls-2" d="M97.07,51.25v2.67h4.83v1.5H97.07v2.72h5.56v1.5H95.4V49.76h7.06v1.49Z"/><path class="cls-2" d="M110.57,51.25v2.86h4.48v1.48h-4.48v4H108.9V49.76h6.64l0,1.49Z"/><path class="cls-2" d="M122.92,51.25v2.86h4.49v1.48h-4.49v4h-1.66V49.76h6.63l0,1.49Z"/><path class="cls-2" d="M143.26,54.7a5.24,5.24,0,1,1-5.23-5A5.05,5.05,0,0,1,143.26,54.7Zm-8.78,0a3.54,3.54,0,0,0,7.08,0,3.54,3.54,0,0,0-7.08,0Z"/><path class="cls-2" d="M153.74,56.65H151v3h-1.67V49.76h4c2.52,0,4,1.23,4,3.37a3.18,3.18,0,0,1-2.05,3.21l2.22,3.3h-1.89Zm-.45-1.49c1.52,0,2.4-.65,2.4-2s-.88-1.92-2.4-1.92H151v3.91Z"/><path class="cls-2" d="M167.34,51.25v8.39h-1.67V51.25h-3.12V49.76h7.92v1.49Z"/><path class="cls-2" d="M182.08,58.13v1.51h-6V49.76h1.67v8.37Z"/><path class="cls-2" d="M189.57,51.25v2.67h4.83v1.5h-4.83v2.72h5.56v1.5h-7.22V49.76H195v1.49Z"/><path class="cls-2" d="M208.11,50.7l-.69,1.47a5.91,5.91,0,0,0-2.89-.92c-1,0-1.61.37-1.61,1,0,2.16,5.33,1,5.32,4.56,0,1.77-1.56,2.85-3.73,2.85a6.1,6.1,0,0,1-4-1.56l.72-1.44a5.23,5.23,0,0,0,3.35,1.44c1.16,0,1.85-.44,1.85-1.2,0-2.2-5.34-1-5.34-4.49,0-1.69,1.46-2.75,3.6-2.75A6.49,6.49,0,0,1,208.11,50.7Z"/><path class="cls-2" d="M221.13,50.7l-.69,1.47a5.94,5.94,0,0,0-2.9-.92c-1,0-1.61.37-1.61,1,0,2.16,5.34,1,5.32,4.56,0,1.77-1.55,2.85-3.72,2.85a6.1,6.1,0,0,1-4-1.56l.72-1.44a5.23,5.23,0,0,0,3.35,1.44c1.15,0,1.85-.44,1.85-1.2,0-2.2-5.34-1-5.34-4.49,0-1.69,1.45-2.75,3.6-2.75A6.52,6.52,0,0,1,221.13,50.7Z"/></svg>