<?xml version="1.0" encoding="UTF-8" standalone="no"?>
<!DOCTYPE svg PUBLIC "-//W3C//DTD SVG 1.1//EN" "http://www.w3.org/Graphics/SVG/1.1/DTD/svg11.dtd">
<svg version="1.1" xmlns="http://www.w3.org/2000/svg" xmlns:xlink="http://www.w3.org/1999/xlink" preserveAspectRatio="xMidYMid meet" viewBox="0 0 600 140" width="600" height="140"><defs><path d="M113.85 132.57L63.36 132.84L117.85 42.66L110.03 29.84L56.14 119.66L48.75 132.86L42.34 132.86L5 68.95L42.15 7.43L92.62 7.16L38.16 97.43L45.98 110.25L59.56 87.64L107.33 7.14L113.64 7.14L151.01 71.07L113.85 132.57ZM105.96 118.25L134.58 70.41L126.45 56.94L89.4 118.25L105.96 118.25ZM21.33 69.57L29.43 83.06L66.47 21.82L50.02 21.82L21.33 69.57Z" id="g13AM6K171"></path><linearGradient id="gradientb3L5msQRyK" gradientUnits="userSpaceOnUse" x1="-40.35" y1="70" x2="139.86" y2="70"><stop style="stop-color: #f9ed32;stop-opacity: 1" offset="0%"></stop><stop style="stop-color: #e6e52a;stop-opacity: 1" offset="7.000000000000001%"></stop><stop style="stop-color: #dbe125;stop-opacity: 1" offset="14.000000000000002%"></stop><stop style="stop-color: #d7df23;stop-opacity: 1" offset="21%"></stop><stop style="stop-color: #cfdc26;stop-opacity: 1" offset="24%"></stop><stop style="stop-color: #8dc63f;stop-opacity: 1" offset="48%"></stop><stop style="stop-color: #63ba82;stop-opacity: 1" offset="57.99999999999999%"></stop><stop style="stop-color: #42b2b5;stop-opacity: 1" offset="67%"></stop><stop style="stop-color: #2facd5;stop-opacity: 1" offset="74%"></stop><stop style="stop-color: #27aae1;stop-opacity: 1" offset="77%"></stop><stop style="stop-color: #17629e;stop-opacity: 1" offset="100%"></stop></linearGradient><path d="M222.97 99.03L222.97 108.99L190.41 108.99L190.41 69.86L222.23 69.86L222.23 79.81L203.39 79.81L203.39 84.4L219.96 84.4L219.96 93.95L203.39 93.95L203.39 99.08L222.97 99.03Z" id="b1nVFhMqUR"></path><path d="M244.8 69.86L257.99 69.86L257.99 98.74L275.88 98.74L275.88 108.99L244.8 108.99L244.8 69.86Z" id="a1mGQ3Ukkt"></path><path d="M328.76 99.03L328.76 108.99L296.17 108.99L296.17 69.86L328.02 69.86L328.02 79.81L309.16 79.81L309.16 84.4L325.72 84.4L325.72 93.95L309.16 93.95L309.16 99.08L328.76 99.03Z" id="a5MIiwJfXW"></path><path d="M370.91 68.97C377.68 68.63 384.21 71.53 388.48 76.78C387.65 77.53 380.97 83.48 380.14 84.23C378.19 81.38 374.96 79.67 371.51 79.65C366.01 79.65 362.33 83.44 362.33 89.41C362.33 95.38 366.01 99.2 371.51 99.2C374.94 99.15 378.13 97.44 380.07 94.61C380.91 95.35 387.64 101.23 388.48 101.97C384.22 107.24 377.69 110.15 370.91 109.8C358.31 109.87 349.08 101.44 349.08 89.41C349.08 77.47 358.31 68.97 370.91 68.97Z" id="bq7v1wp85"></path><path d="M417.29 80.07L405.84 80.07L405.84 69.86L441.99 69.86L441.99 80.07L430.51 80.07L430.51 108.99L417.29 108.99L417.29 80.07Z" id="aB7C2fnG"></path><path d="M483.11 69.92L484.05 70L484.96 70.1L485.85 70.24L486.71 70.41L487.55 70.6L488.36 70.83L489.15 71.08L489.91 71.36L490.65 71.67L491.36 72.01L492.04 72.37L492.69 72.76L493.31 73.17L493.91 73.61L494.47 74.08L495 74.57L495.51 75.08L495.98 75.62L496.42 76.18L496.83 76.76L497.2 77.37L497.54 78L497.85 78.65L498.12 79.33L498.36 80.02L498.56 80.74L498.73 81.47L498.86 82.23L498.96 83L499.01 83.8L499.03 84.61L499.04 85.08L499.03 85.55L499.01 86.02L498.97 86.48L498.91 86.94L498.84 87.39L498.75 87.85L498.64 88.29L498.53 88.73L498.39 89.17L498.24 89.6L498.08 90.03L497.9 90.44L497.71 90.86L497.5 91.26L497.28 91.66L497.05 92.05L496.8 92.43L496.54 92.8L496.27 93.16L495.98 93.52L495.68 93.86L495.37 94.19L495.05 94.52L494.72 94.83L494.37 95.13L494.01 95.42L493.65 95.7L493.27 95.97L492.88 96.22L492.48 96.46L492.07 96.69L491.65 96.91L499.87 108.99L485.76 108.99L479.09 99.15L475.53 99.15L475.53 108.99L462.31 108.99L462.31 69.86L481.17 69.86L482.15 69.87L483.11 69.92ZM479.71 80.03L479.06 80.04L478.16 80.04L476.99 80.04L475.56 80.05L475.56 89.22L480.34 89.22L482 89.08L483.35 88.66L484.39 87.99L485.13 87.09L485.57 85.96L485.72 84.63L485.56 83.31L485.1 82.18L484.34 81.27L483.27 80.59L481.9 80.17L480.22 80.03L480.1 80.03L479.71 80.03Z" id="a1s4nTy7KW"></path><path d="M520.69 69.86L533.89 69.86L533.89 108.99L520.69 108.99L520.69 69.86Z" id="dkphewo8"></path><path d="M577.43 68.97C584.2 68.63 590.73 71.53 595 76.78C594.17 77.53 587.51 83.48 586.68 84.23C584.74 81.4 581.55 79.7 578.12 79.65C572.62 79.65 568.94 83.44 568.94 89.41C568.94 95.38 572.62 99.2 578.12 99.2C581.55 99.15 584.74 97.44 586.68 94.61C587.5 95.35 594.08 101.23 594.9 101.97C590.64 107.24 584.11 110.15 577.33 109.8C564.73 109.87 555.6 101.44 555.6 89.41C555.6 77.47 564.83 68.97 577.43 68.97Z" id="b3Y6COXqVT"></path><path d="M194.76 30.94L194.76 37.32L206.3 37.32L206.3 40.9L194.76 40.9L194.76 47.39L208.05 47.39L208.05 50.97L190.76 50.97L190.76 27.39L207.64 27.39L207.64 30.94L194.76 30.94Z" id="buIzmNilX"></path><path d="M227.03 30.94L227.03 37.77L237.74 37.77L237.74 41.3L227.03 41.3L227.03 50.85L223.04 50.85L223.04 27.39L238.92 27.39L238.92 30.94L227.03 30.94Z" id="a2l3gVg0ap"></path><path d="M256.56 30.94L256.56 37.77L267.29 37.77L267.29 41.3L256.56 41.3L256.56 50.85L252.59 50.85L252.59 27.39L268.44 27.39L268.44 30.94L256.56 30.94Z" id="a1Q0c1ngV0"></path><path d="M295.28 27.43L296.52 27.72L297.71 28.14L298.83 28.67L299.89 29.31L300.88 30.06L301.78 30.9L302.6 31.83L303.32 32.84L303.93 33.92L304.43 35.07L304.81 36.29L305.06 37.55L305.18 38.86L305.18 38.88L305.18 38.92L305.18 38.95L305.18 38.97L305.18 38.99L305.19 39.03L305.19 39.05L305.19 39.07L305.19 39.09L305.19 39.14L305.19 39.16L305.19 39.18L305.18 40.54L305.02 41.87L304.73 43.16L304.31 44.39L303.77 45.56L303.11 46.67L302.35 47.7L301.48 48.65L300.53 49.5L299.49 50.25L298.36 50.9L297.17 51.43L295.92 51.84L294.61 52.11L293.25 52.25L291.88 52.24L290.55 52.08L289.26 51.79L288.03 51.37L286.85 50.83L285.75 50.18L284.71 49.41L283.77 48.55L282.91 47.59L282.16 46.55L281.51 45.44L280.98 44.25L280.57 42.99L280.29 41.68L280.16 40.32L280.17 38.96L280.32 37.63L280.62 36.35L281.04 35.11L281.58 33.94L282.23 32.83L283 31.8L283.86 30.86L284.82 30L285.86 29.25L286.98 28.6L288.17 28.07L289.43 27.67L290.74 27.39L292.1 27.25L292.14 27.25L292.18 27.25L292.22 27.25L292.26 27.25L292.29 27.25L292.33 27.25L292.37 27.25L292.41 27.24L292.45 27.24L292.49 27.24L292.53 27.24L292.57 27.24L292.61 27.24L292.65 27.24L292.68 27.24L294 27.27L295.28 27.43ZM289.99 31.16L288.77 31.67L287.66 32.36L286.68 33.2L285.83 34.19L285.14 35.29L284.63 36.51L284.31 37.81L284.2 39.18L284.31 40.55L284.63 41.85L285.14 43.06L285.83 44.17L286.68 45.15L287.66 46L288.77 46.69L289.99 47.2L291.29 47.52L292.66 47.63L294.03 47.52L295.34 47.2L296.55 46.69L297.66 46L298.64 45.15L299.49 44.17L300.18 43.06L300.69 41.85L301.01 40.55L301.12 39.18L301.01 37.81L300.69 36.51L300.18 35.29L299.49 34.19L298.64 33.2L297.66 32.36L296.55 31.67L295.34 31.16L294.03 30.84L292.66 30.73L291.29 30.84L289.99 31.16Z" id="c2JST1D3Rd"></path><path d="M331.08 27.48L331.93 27.6L332.73 27.77L333.48 27.98L334.19 28.24L334.86 28.54L335.47 28.89L336.04 29.28L336.56 29.71L337.02 30.19L337.44 30.71L337.8 31.26L338.11 31.86L338.37 32.5L338.57 33.18L338.71 33.89L338.8 34.64L338.83 35.43L338.85 35.96L338.83 36.48L338.78 37L338.7 37.5L338.58 38L338.42 38.49L338.24 38.96L338.03 39.42L337.78 39.86L337.51 40.29L337.21 40.69L336.89 41.08L336.53 41.44L336.16 41.79L335.75 42.1L335.33 42.39L334.88 42.66L334.41 42.89L333.93 43.09L339.23 50.97L334.71 50.97L330.24 43.83L323.69 43.83L323.69 51L319.7 51L319.7 27.39L329.26 27.39L330.19 27.41L331.08 27.48ZM323.69 40.25L329.17 40.28L330.63 40.18L331.89 39.89L332.95 39.41L333.79 38.73L334.4 37.86L334.78 36.78L334.91 35.5L334.78 34.23L334.4 33.18L333.79 32.35L332.95 31.71L331.89 31.26L330.63 31L329.17 30.92L323.69 30.92L323.69 40.25Z" id="f6fMAoHqO"></path><path d="M362.76 30.94L362.76 50.97L358.77 50.97L358.77 30.94L351.31 30.94L351.31 27.39L370.24 27.39L370.24 30.94L362.76 30.94Z" id="fEvMXtTLG"></path><path d="M398 47.37L398 50.97L383.65 50.97L383.65 27.39L387.65 27.39L387.65 47.37L398 47.37Z" id="bdc6be1nq"></path><path d="M415.91 30.94L415.91 37.32L427.45 37.32L427.45 40.9L415.91 40.9L415.91 47.39L429.2 47.39L429.2 50.97L411.94 50.97L411.94 27.39L428.89 27.39L428.89 30.94L415.91 30.94Z" id="a9VtARe4C"></path><path d="M458.58 33.14C456.51 31.82 454.13 31.06 451.67 30.94C449.28 30.94 447.82 31.83 447.82 33.33C447.82 38.49 460.57 35.72 460.54 44.22C460.54 48.44 456.81 51.02 451.62 51.02C448.09 50.98 444.69 49.65 442.06 47.3C442.23 46.95 443.61 44.2 443.78 43.86C445.95 45.93 448.8 47.15 451.79 47.3C454.56 47.3 456.21 46.25 456.21 44.43C456.21 39.18 443.45 42.04 443.45 33.71C443.45 29.68 446.94 27.15 452.05 27.15C454.96 27.19 457.79 28.05 460.23 29.63C459.9 30.33 458.75 32.79 458.58 33.14Z" id="b8yRWk3L"></path><path d="M489.71 33.14C487.63 31.82 485.24 31.06 482.78 30.94C480.39 30.94 478.93 31.83 478.93 33.33C478.93 38.49 491.69 35.72 491.65 44.22C491.65 48.44 487.94 51.02 482.75 51.02C479.22 50.98 475.82 49.65 473.19 47.3C473.36 46.95 474.74 44.2 474.91 43.86C477.08 45.93 479.92 47.15 482.92 47.3C485.67 47.3 487.34 46.25 487.34 44.43C487.34 39.18 474.58 42.04 474.58 33.71C474.58 29.68 478.04 27.15 483.18 27.15C486.09 27.2 488.92 28.06 491.36 29.63C491.03 30.33 489.87 32.79 489.71 33.14Z" id="d1AyT2x1K"></path></defs><g><g><g><use xlink:href="#g13AM6K171" opacity="1" fill="url(#gradientb3L5msQRyK)"></use><g><use xlink:href="#g13AM6K171" opacity="1" fill-opacity="0" stroke="#000000" stroke-width="1" stroke-opacity="0"></use></g></g><g><use xlink:href="#b1nVFhMqUR" opacity="1" fill="#17629e" fill-opacity="1"></use><g><use xlink:href="#b1nVFhMqUR" opacity="1" fill-opacity="0" stroke="#000000" stroke-width="1" stroke-opacity="0"></use></g></g><g><use xlink:href="#a1mGQ3Ukkt" opacity="1" fill="#17629e" fill-opacity="1"></use><g><use xlink:href="#a1mGQ3Ukkt" opacity="1" fill-opacity="0" stroke="#000000" stroke-width="1" stroke-opacity="0"></use></g></g><g><use xlink:href="#a5MIiwJfXW" opacity="1" fill="#17629e" fill-opacity="1"></use><g><use xlink:href="#a5MIiwJfXW" opacity="1" fill-opacity="0" stroke="#000000" stroke-width="1" stroke-opacity="0"></use></g></g><g><use xlink:href="#bq7v1wp85" opacity="1" fill="#17629e" fill-opacity="1"></use><g><use xlink:href="#bq7v1wp85" opacity="1" fill-opacity="0" stroke="#000000" stroke-width="1" stroke-opacity="0"></use></g></g><g><use xlink:href="#aB7C2fnG" opacity="1" fill="#17629e" fill-opacity="1"></use><g><use xlink:href="#aB7C2fnG" opacity="1" fill-opacity="0" stroke="#000000" stroke-width="1" stroke-opacity="0"></use></g></g><g><use xlink:href="#a1s4nTy7KW" opacity="1" fill="#17629e" fill-opacity="1"></use><g><use xlink:href="#a1s4nTy7KW" opacity="1" fill-opacity="0" stroke="#000000" stroke-width="1" stroke-opacity="0"></use></g></g><g><use xlink:href="#dkphewo8" opacity="1" fill="#17629e" fill-opacity="1"></use><g><use xlink:href="#dkphewo8" opacity="1" fill-opacity="0" stroke="#000000" stroke-width="1" stroke-opacity="0"></use></g></g><g><use xlink:href="#b3Y6COXqVT" opacity="1" fill="#17629e" fill-opacity="1"></use><g><use xlink:href="#b3Y6COXqVT" opacity="1" fill-opacity="0" stroke="#000000" stroke-width="1" stroke-opacity="0"></use></g></g><g><use xlink:href="#buIzmNilX" opacity="1" fill="#17629e" fill-opacity="1"></use><g><use xlink:href="#buIzmNilX" opacity="1" fill-opacity="0" stroke="#000000" stroke-width="1" stroke-opacity="0"></use></g></g><g><use xlink:href="#a2l3gVg0ap" opacity="1" fill="#17629e" fill-opacity="1"></use><g><use xlink:href="#a2l3gVg0ap" opacity="1" fill-opacity="0" stroke="#000000" stroke-width="1" stroke-opacity="0"></use></g></g><g><use xlink:href="#a1Q0c1ngV0" opacity="1" fill="#17629e" fill-opacity="1"></use><g><use xlink:href="#a1Q0c1ngV0" opacity="1" fill-opacity="0" stroke="#000000" stroke-width="1" stroke-opacity="0"></use></g></g><g><use xlink:href="#c2JST1D3Rd" opacity="1" fill="#17629e" fill-opacity="1"></use><g><use xlink:href="#c2JST1D3Rd" opacity="1" fill-opacity="0" stroke="#000000" stroke-width="1" stroke-opacity="0"></use></g></g><g><use xlink:href="#f6fMAoHqO" opacity="1" fill="#17629e" fill-opacity="1"></use><g><use xlink:href="#f6fMAoHqO" opacity="1" fill-opacity="0" stroke="#000000" stroke-width="1" stroke-opacity="0"></use></g></g><g><use xlink:href="#fEvMXtTLG" opacity="1" fill="#17629e" fill-opacity="1"></use><g><use xlink:href="#fEvMXtTLG" opacity="1" fill-opacity="0" stroke="#000000" stroke-width="1" stroke-opacity="0"></use></g></g><g><use xlink:href="#bdc6be1nq" opacity="1" fill="#17629e" fill-opacity="1"></use><g><use xlink:href="#bdc6be1nq" opacity="1" fill-opacity="0" stroke="#000000" stroke-width="1" stroke-opacity="0"></use></g></g><g><use xlink:href="#a9VtARe4C" opacity="1" fill="#17629e" fill-opacity="1"></use><g><use xlink:href="#a9VtARe4C" opacity="1" fill-opacity="0" stroke="#000000" stroke-width="1" stroke-opacity="0"></use></g></g><g><use xlink:href="#b8yRWk3L" opacity="1" fill="#17629e" fill-opacity="1"></use><g><use xlink:href="#b8yRWk3L" opacity="1" fill-opacity="0" stroke="#000000" stroke-width="1" stroke-opacity="0"></use></g></g><g><use xlink:href="#d1AyT2x1K" opacity="1" fill="#17629e" fill-opacity="1"></use><g><use xlink:href="#d1AyT2x1K" opacity="1" fill-opacity="0" stroke="#000000" stroke-width="1" stroke-opacity="0"></use></g></g></g></g></svg>