<svg id="Layer_1" data-name="Layer 1" xmlns="http://www.w3.org/2000/svg" xmlns:xlink="http://www.w3.org/1999/xlink" viewBox="0 0 216 139.88"><defs><style>.cls-1{fill:url(#linear-gradient);}.cls-2{fill:#17629e;}</style><linearGradient id="linear-gradient" x1="57.15" y1="44.34" x2="132.53" y2="44.34" gradientUnits="userSpaceOnUse"><stop offset="0" stop-color="#f9ed32"/><stop offset="0.07" stop-color="#e6e52a"/><stop offset="0.14" stop-color="#dbe125"/><stop offset="0.21" stop-color="#d7df23"/><stop offset="0.24" stop-color="#cfdc26"/><stop offset="0.48" stop-color="#8dc63f"/><stop offset="0.58" stop-color="#63ba82"/><stop offset="0.67" stop-color="#42b2b5"/><stop offset="0.74" stop-color="#2facd5"/><stop offset="0.77" stop-color="#27aae1"/><stop offset="1" stop-color="#17629e"/></linearGradient></defs><title>Effortless Electric Logos_Final_Outlined</title><path class="cls-1" d="M121.56,18l-2.35,0,0,0,0,0h-.24l-20,33.65-5.69,9.47L90,55.79,112.77,18l-21.12.11L76.11,43.9,91.74,70.67l2.37,0,0,0,0,0h.23l3.08-5.52,22.58-37.59,3.26,5.37L100.53,70.66l21.12-.11,15.54-25.77ZM82.94,44.16l12-20h6.88L86.34,49.81Zm35.41,20.39h-6.89L127,38.87l3.4,5.65Z"/><path class="cls-2" d="M38.29,117.45v4.07H25v-16H38v4.07H30.28v1.88h6.77v3.89H30.28v2.1Z"/><path class="cls-2" d="M47.23,105.51h5.4v11.83h7.23v4.18H47.23Z"/><path class="cls-2" d="M81.52,117.45v4.07H68.21v-16h13v4.07h-7.7v1.88h6.77v3.89H73.52v2.1Z"/><path class="cls-2" d="M89.83,113.52c0-4.92,3.77-8.37,8.92-8.37a8.65,8.65,0,0,1,7.18,3.2l-3.41,3a4.32,4.32,0,0,0-3.5-1.87c-2.24,0-3.75,1.55-3.75,4a3.65,3.65,0,0,0,3.75,4,4.33,4.33,0,0,0,3.5-1.88l3.41,3a8.65,8.65,0,0,1-7.18,3.2C93.6,121.89,89.83,118.44,89.83,113.52Z"/><path class="cls-2" d="M117.71,109.7H113v-4.19H127.8v4.19h-4.69v11.82h-5.4Z"/><path class="cls-2" d="M142.92,117.5h-1.46v4h-5.4v-16h7.71c4.46,0,7.3,2.34,7.3,6a5.36,5.36,0,0,1-3,5l3.36,4.94h-5.77Zm.51-7.83h-2v3.76h2c1.48,0,2.19-.71,2.19-1.88S144.91,109.67,143.43,109.67Z"/><path class="cls-2" d="M160,105.51h5.39v16H160Z"/><path class="cls-2" d="M174.2,113.52c0-4.92,3.77-8.37,8.92-8.37a8.65,8.65,0,0,1,7.18,3.2l-3.41,3a4.32,4.32,0,0,0-3.5-1.87c-2.24,0-3.75,1.55-3.75,4a3.65,3.65,0,0,0,3.75,4,4.33,4.33,0,0,0,3.5-1.88l3.41,3a8.65,8.65,0,0,1-7.18,3.2C178,121.89,174.2,118.44,174.2,113.52Z"/><path class="cls-2" d="M47.76,89.59v2.6h4.71v1.47H47.76v2.66h5.43v1.46H46.13V88.13H53v1.46Z"/><path class="cls-2" d="M60.94,89.59v2.78h4.39v1.45H60.94v4H59.32V88.13H65.8v1.46Z"/><path class="cls-2" d="M73,89.59v2.78H77.4v1.45H73v4H71.39V88.13h6.48v1.46Z"/><path class="cls-2" d="M92.89,93a5.12,5.12,0,1,1-5.11-4.87A4.94,4.94,0,0,1,92.89,93Zm-8.58,0a3.46,3.46,0,0,0,6.92,0,3.46,3.46,0,0,0-6.92,0Z"/><path class="cls-2" d="M103.13,94.86H100.4v2.91H98.77V88.13h3.92c2.47,0,3.89,1.19,3.89,3.29a3.09,3.09,0,0,1-2,3.13l2.17,3.23H104.9Zm-.44-1.45c1.49,0,2.35-.64,2.35-2s-.86-1.87-2.35-1.87H100.4v3.82Z"/><path class="cls-2" d="M116.42,89.59v8.19h-1.63V89.59h-3.05V88.13h7.74v1.46Z"/><path class="cls-2" d="M130.82,96.31v1.47H125V88.13h1.63v8.18Z"/><path class="cls-2" d="M138.15,89.59v2.6h4.71v1.47h-4.71v2.66h5.43v1.46h-7.06V88.13h6.9v1.46Z"/><path class="cls-2" d="M156.26,89.05l-.68,1.43a5.75,5.75,0,0,0-2.82-.89c-1,0-1.58.36-1.58,1,0,2.11,5.22,1,5.2,4.46,0,1.72-1.51,2.79-3.64,2.79a5.92,5.92,0,0,1-3.94-1.53l.7-1.41a5.1,5.1,0,0,0,3.27,1.41c1.13,0,1.81-.43,1.81-1.18,0-2.15-5.22-.95-5.22-4.38,0-1.66,1.42-2.69,3.52-2.69A6.31,6.31,0,0,1,156.26,89.05Z"/><path class="cls-2" d="M169,89.05l-.68,1.43a5.78,5.78,0,0,0-2.82-.89c-1,0-1.58.36-1.58,1,0,2.11,5.22,1,5.2,4.46,0,1.72-1.51,2.79-3.64,2.79a5.92,5.92,0,0,1-3.94-1.53l.7-1.41a5.08,5.08,0,0,0,3.27,1.41c1.13,0,1.81-.43,1.81-1.18,0-2.15-5.22-.95-5.22-4.38,0-1.66,1.42-2.69,3.52-2.69A6.34,6.34,0,0,1,169,89.05Z"/></svg>